<?xml version="1.0" encoding="utf-8"?>
<!-- Generator: Adobe Illustrator 21.1.0, SVG Export Plug-In . SVG Version: 6.00 Build 0)  -->
<svg version="1.1" id="Capa_1" xmlns="http://www.w3.org/2000/svg" xmlns:xlink="http://www.w3.org/1999/xlink" x="0px" y="0px"
	 viewBox="0 0 368.2 800.8" style="enable-background:new 0 0 368.2 800.8;" xml:space="preserve">
<style type="text/css">
	.st0{fill:#E74C3C;}
</style>
<g>
	<circle class="st0" cx="184.1" cy="736.7" r="64.1"/>
	<path class="st0" d="M15.2,221.1c10.3,10.4,23.8,15.6,37.3,15.6c13.3,0,26.7-5,36.9-15.2l42.2-41.7v364.5c0,29,23.5,52.5,52.5,52.5
		s52.5-23.5,52.5-52.5V178.6l41.7,42.2c20.4,20.6,53.6,20.8,74.2,0.4c20.6-20.4,20.8-53.6,0.4-74.2L223.1,15.6
		C213.3,5.7,200,0.1,186.1,0c-0.1,0-0.2,0-0.3,0c-13.8,0-27.1,5.4-36.9,15.2L15.6,146.8C-5,167.2-5.2,200.5,15.2,221.1z"/>
</g>
</svg>
